<svg xmlns="http://www.w3.org/2000/svg" width="1600" height="1600" viewBox="0 0 1600 1600" role="img" aria-labelledby="title desc">
  <title id="title">Universa create VA success preview</title>
  <desc id="desc">Black and white Universa infrastructure preview showing create VA function success.</desc>
  <defs>
    <filter id="soft-ink" x="-10%" y="-20%" width="120%" height="140%">
      <feGaussianBlur in="SourceAlpha" stdDeviation="0.45" result="blur"/>
      <feOffset dx="0" dy="0" result="offset"/>
      <feMerge>
        <feMergeNode in="offset"/>
        <feMergeNode in="SourceGraphic"/>
      </feMerge>
    </filter>
    <pattern id="paper-grain" width="180" height="180" patternUnits="userSpaceOnUse">
      <rect width="180" height="180" fill="#000"/>
      <circle cx="16" cy="28" r="1.1" fill="#fff" opacity="0.06"/>
      <circle cx="82" cy="61" r="0.8" fill="#fff" opacity="0.045"/>
      <circle cx="137" cy="22" r="1.4" fill="#fff" opacity="0.035"/>
      <circle cx="122" cy="118" r="1" fill="#fff" opacity="0.05"/>
      <circle cx="41" cy="151" r="0.7" fill="#fff" opacity="0.04"/>
      <path d="M8 94 H172" stroke="#fff" stroke-width="0.45" opacity="0.018"/>
      <path d="M57 0 V180" stroke="#fff" stroke-width="0.45" opacity="0.014"/>
    </pattern>
  </defs>

  <rect width="1600" height="1600" fill="#000"/>
  <rect width="1600" height="1600" fill="url(#paper-grain)" opacity="0.72"/>

  <g fill="none" stroke="#fff" stroke-opacity="0.14">
    <rect x="66" y="66" width="1468" height="1468" stroke-width="2"/>
    <rect x="96" y="96" width="1408" height="1408" stroke-width="1"/>
    <path d="M96 310 H1504"/>
    <path d="M96 1232 H1504"/>
    <path d="M1146 96 V310"/>
    <path d="M454 1232 V1504"/>
  </g>

  <g fill="#fff" font-family="Helvetica Neue, Helvetica, Arial, sans-serif" font-weight="700" letter-spacing="5">
    <text x="114" y="148" font-size="25">UNIVERSA RAILS</text>
    <text x="114" y="190" font-size="18" opacity="0.58">SELF SERVE PAYOUT INFRA</text>
    <text x="1180" y="148" font-size="25">STATUS</text>
    <text x="1180" y="190" font-size="18" opacity="0.58">CREATE_VA SUCCESS</text>
  </g>

  <g filter="url(#soft-ink)">
    <text
      x="800"
      y="548"
      text-anchor="middle"
      dominant-baseline="middle"
      fill="#fff"
      font-family="Arial Black, Helvetica Neue, Helvetica, sans-serif"
      font-size="236"
      font-style="italic"
      font-weight="900"
      letter-spacing="-18"
      textLength="1180"
      lengthAdjust="spacingAndGlyphs">universa</text>
  </g>

  <g fill="#fff" font-family="Helvetica Neue, Helvetica, Arial, sans-serif">
    <text x="800" y="704" text-anchor="middle" font-size="32" font-weight="700" letter-spacing="10">VIRTUAL ACCOUNT CREATED</text>
    <text x="800" y="754" text-anchor="middle" font-size="19" font-weight="500" letter-spacing="6" opacity="0.62">FIAT IN / USDC OUT / MONTHLY DEVELOPER PAYOUTS</text>
  </g>

  <g transform="translate(210 846)">
    <rect x="0" y="0" width="1180" height="286" rx="0" fill="none" stroke="#fff" stroke-width="2" opacity="0.82"/>
    <path d="M0 72 H1180" stroke="#fff" stroke-width="1" opacity="0.32"/>
    <g fill="#fff" font-family="Helvetica Neue, Helvetica, Arial, sans-serif" font-weight="700" letter-spacing="4">
      <text x="34" y="47" font-size="18" opacity="0.68">FUNCTION RECEIPT</text>
      <text x="1000" y="47" font-size="18" opacity="0.68">200 OK</text>
    </g>
    <g fill="#fff" font-family="SFMono-Regular, ui-monospace, Menlo, Consolas, monospace">
      <text x="34" y="132" font-size="37">create_va()</text>
      <text x="34" y="186" font-size="27" opacity="0.7">status: success</text>
      <text x="34" y="231" font-size="27" opacity="0.7">destination: solana_usdc_wallet</text>
    </g>
    <g stroke="#fff" stroke-width="2" fill="none">
      <path d="M700 180 H1020"/>
      <path d="M864 116 V244"/>
      <circle cx="700" cy="180" r="11" fill="#000"/>
      <circle cx="700" cy="180" r="11"/>
      <circle cx="864" cy="116" r="11" fill="#000"/>
      <circle cx="864" cy="116" r="11"/>
      <circle cx="864" cy="244" r="11" fill="#000"/>
      <circle cx="864" cy="244" r="11"/>
      <circle cx="1020" cy="180" r="11" fill="#000"/>
      <circle cx="1020" cy="180" r="11"/>
    </g>
    <g fill="#fff" font-family="Helvetica Neue, Helvetica, Arial, sans-serif" font-weight="700" letter-spacing="3" opacity="0.72">
      <text x="674" y="148" font-size="15" text-anchor="end">VA</text>
      <text x="864" y="88" font-size="15" text-anchor="middle">BANK RAIL</text>
      <text x="864" y="275" font-size="15" text-anchor="middle">USDC</text>
      <text x="1047" y="186" font-size="15">WALLET</text>
    </g>
  </g>

  <g fill="#fff" font-family="Helvetica Neue, Helvetica, Arial, sans-serif" font-weight="700">
    <text x="114" y="1302" font-size="40" letter-spacing="2">“CREATE VA FUNCTION SUCCESS”</text>
    <text x="114" y="1364" font-size="21" letter-spacing="5" opacity="0.62">OWN INFRA. PROVIDER RAILS. USDC SETTLEMENT.</text>
    <text x="114" y="1460" font-size="18" letter-spacing="4" opacity="0.52">RUN ID: 06.15 / PAYOUTS ACTIVE / DEVS PAID ON-CHAIN</text>
  </g>

  <g fill="#fff" font-family="Helvetica Neue, Helvetica, Arial, sans-serif" font-weight="800" letter-spacing="3" opacity="0.84">
    <text x="1330" y="1318" font-size="116" text-anchor="middle">OK</text>
    <path d="M1240 1354 H1420" stroke="#fff" stroke-width="2"/>
    <text x="1330" y="1404" font-size="20" text-anchor="middle">VA CREATED</text>
  </g>
</svg>
